# xmcd
#
# Track frame offsets: 
#        150
#        13617
#        25926
#        38638
#        51344
#        66226
#        79927
#        95318
#        109740
#        123074
#        136838
#        150597
#        162781
#        175298
#        186584
#        200048
#        213152
#        223851
#        236425
#        248491
#        262300
#        276487
#        289741
#        303362
#        317304
#        328621
#
# Disc length: 4569 seconds
#
# Revision: 1
# Processed by: cddbd v1.5.2PL0 Copyright (c) Steve Scherf et al.
# Submitted via: ExactAudioCopyFreeDBPlugin 1.0
#
DISCID=7611d71a
DTITLE=Dizzy Gillespie - Groovin' High
DYEAR=2008
DGENRE=Jazz
TTITLE0=Blue 'N' Boogie
TTITLE1=Groovin' High
TTITLE2=All The Things You Are
TTITLE3=Dizzy Atmosphere
TTITLE4=Salt Peanuts
TTITLE5=Shaw 'Nuff
TTITLE6=Lover Man
TTITLE7=Hot House
TTITLE8=One Bass Hit, Part 1
TTITLE9=Opp-Bop-Sh'Bam
TTITLE10=A Hand Fulla Gimme
TTITLE11=That's Earl, Brother
TTITLE12=He Beeped When He Shoulda Bopped
TTITLE13=Our Delight
TTITLE14=Good Dues Blues
TTITLE15=One Bass Hit, Part 2
TTITLE16=Ray's Idea
TTITLE17=Things To Come
TTITLE18=He Beeped When He Shoulda Bopped
TTITLE19=I Wanted For You
TTITLE20=Emanon
TTITLE21=For Hecklers Only
TTITLE22=Smoky Hollow Blues
TTITLE23=Boppin' The Blues
TTITLE24=Moody Speaks
TTITLE25=Interlude (A Night In Tunisia)
EXTD=YEAR: 2008
EXTT0=
EXTT1=
EXTT2=
EXTT3=
EXTT4=
EXTT5=
EXTT6=
EXTT7=
EXTT8=
EXTT9=
EXTT10=
EXTT11=
EXTT12=
EXTT13=
EXTT14=
EXTT15=
EXTT16=
EXTT17=
EXTT18=
EXTT19=
EXTT20=
EXTT21=
EXTT22=
EXTT23=
EXTT24=
EXTT25=
PLAYORDER=
